<svg version="1.1" id="Layer_1" xmlns="http://www.w3.org/2000/svg" xmlns:xlink="http://www.w3.org/1999/xlink" x="0px" y="0px"
	 width="100%" viewBox="0 0 1834 1109" xml:space="preserve">
<path fill="#E63946" opacity="1.000000" stroke="none" 
	d="
M73.035583,585.696289 
	C73.019676,573.389526 72.314835,561.506775 73.181114,549.739685 
	C74.176170,536.223206 75.724503,522.628906 78.570770,509.399292 
	C81.671448,494.987122 85.758278,480.670441 90.812881,466.822296 
	C98.677910,445.274445 109.785431,425.301300 122.937592,406.428345 
	C133.891052,390.710419 145.906860,375.929169 159.799042,362.783234 
	C177.232483,346.286255 196.071335,331.459320 217.439087,320.404358 
	C232.005951,312.867950 246.898529,305.596313 262.348907,300.232635 
	C278.560883,294.604553 295.469452,290.655823 312.347931,287.391998 
	C323.272888,285.279419 334.681824,285.479156 345.889465,285.077240 
	C355.566193,284.730255 365.317688,284.349731 374.942261,285.134857 
	C391.885742,286.517029 408.695557,288.978485 425.055450,294.032715 
	C445.433960,300.328491 464.718353,308.968018 482.952637,319.981964 
	C486.827454,322.322449 490.541840,324.928558 494.476013,327.507996 
	C494.476013,243.374298 494.476013,159.440994 494.476013,75.260147 
	C514.396851,75.260147 534.322327,75.260147 555.131470,75.260147 
	C555.131470,208.082108 555.131470,340.860260 555.131470,474.332489 
	C554.118835,473.077759 552.997803,472.183105 552.521423,471.023651 
	C546.305664,455.894043 537.117676,442.574371 527.207092,429.743561 
	C511.013794,408.778625 490.878326,392.089722 468.467560,378.343628 
	C445.647430,364.346436 420.804626,354.935211 394.415161,350.099884 
	C376.434265,346.805237 358.168274,345.963989 339.980988,347.141754 
	C315.038147,348.757019 290.786835,354.024292 267.941193,364.556946 
	C243.358841,375.890320 221.105164,390.482666 201.663132,409.641571 
	C178.531754,432.436127 161.092407,458.721558 149.727554,488.978668 
	C145.617706,499.920532 142.647430,511.336060 139.839828,522.704041 
	C138.204041,529.327393 137.578903,536.261353 137.109787,543.097412 
	C136.429459,553.011292 135.907913,562.967407 136.018585,572.897705 
	C136.260910,594.645447 139.889542,615.762390 146.794830,636.538818 
	C154.053146,658.377441 164.654327,678.274109 177.932831,696.818298 
	C189.020004,712.302185 202.237534,725.765381 217.052979,737.899414 
	C234.359009,752.073364 253.151505,763.573242 273.788574,771.773010 
	C290.749451,778.511963 308.234283,784.044983 326.706421,785.182922 
	C337.730316,785.862000 348.775360,787.064941 359.789185,786.860718 
	C383.299927,786.425110 406.229889,782.575562 428.466034,774.362244 
	C449.539154,766.578674 469.077362,756.067505 486.758789,742.453552 
	C504.919952,728.470398 520.885376,712.162659 534.011536,693.160156 
	C544.172607,678.450134 553.045105,662.956787 558.964539,646.223511 
	C564.196350,631.433838 567.795715,615.954529 570.838440,600.527771 
	C575.878601,574.974487 573.758362,548.977478 573.962952,523.147522 
	C574.138428,500.984528 574.046570,478.818939 573.990356,456.654694 
	C573.673767,331.734161 573.332092,206.813721 572.999878,81.893257 
	C572.994263,79.767883 572.999146,77.642487 572.999146,75.268127 
	C593.039062,75.268127 612.635132,75.268127 633.002014,75.268127 
	C633.002014,77.191811 633.000305,79.109970 633.002258,81.028137 
	C633.016174,94.564056 632.976807,108.100296 633.054932,121.635849 
	C633.351501,173.036545 633.843445,224.436661 633.970154,275.837708 
	C634.170166,356.990204 634.098938,438.143372 634.232544,519.296082 
	C634.255554,533.235168 635.347351,547.196838 634.824280,561.105896 
	C634.237122,576.719910 632.880798,592.349976 630.912170,607.852844 
	C629.332397,620.293030 627.220520,632.806091 623.777344,644.838257 
	C617.785645,665.776001 610.080505,686.201416 598.547546,704.830994 
	C590.043030,718.568726 581.578735,732.454041 571.673279,745.164368 
	C563.135254,756.120117 553.035461,765.994568 542.798096,775.450745 
	C533.179443,784.335632 522.770813,792.448853 512.187805,800.187805 
	C492.973877,814.238403 471.896332,824.893860 449.506470,833.018555 
	C430.538513,839.901611 411.137299,845.198792 391.045288,846.831238 
	C373.074677,848.291321 354.955383,849.351868 336.961853,848.759949 
	C311.046204,847.907410 285.730957,842.448364 261.240509,833.886292 
	C235.821152,824.999573 212.164825,812.381287 190.418625,796.614868 
	C172.453018,783.589478 156.551315,768.152283 141.754013,751.488281 
	C125.978271,733.722290 113.123085,714.025330 102.278915,693.140564 
	C90.673958,670.790466 82.511475,646.967590 78.082207,622.074829 
	C76.224808,611.636169 75.340179,601.025208 73.972366,590.497864 
	C73.782944,589.039978 73.357224,587.612854 73.035583,585.696289 
z"/>
<path fill="#2A9D8F" opacity="1.000000" stroke="none" 
	d="
M1211.942871,1058.764404 
	C1211.295410,1056.917725 1210.093384,1055.073730 1210.084106,1053.223877 
	C1209.959839,1028.229492 1210.001831,1003.234253 1210.001587,978.239258 
	C1210.000977,915.751709 1210.126465,853.263916 1209.966797,790.776733 
	C1209.767944,712.871155 1208.943848,634.964783 1209.229980,557.061768 
	C1209.320435,532.446045 1212.490112,507.892212 1221.026367,484.451324 
	C1226.260254,470.078766 1230.375854,455.093323 1237.379395,441.623627 
	C1245.867798,425.298035 1256.386475,409.940674 1266.964478,394.820557 
	C1273.739136,385.136871 1281.825684,376.273682 1290.006592,367.693329 
	C1302.855591,354.216858 1317.347046,342.600220 1332.702881,332.026642 
	C1352.512573,318.386261 1373.774536,307.591675 1396.482544,299.882935 
	C1414.992310,293.599396 1433.679932,287.636353 1453.525146,286.976685 
	C1471.400024,286.382538 1489.278564,285.019104 1507.140747,285.231720 
	C1518.756714,285.369995 1530.549805,286.802460 1541.897949,289.310272 
	C1557.327026,292.720062 1572.826660,296.627625 1587.519775,302.323883 
	C1602.555176,308.152893 1616.851685,316.029785 1631.110718,323.682709 
	C1648.104858,332.803650 1662.998657,344.861694 1677.434814,357.665253 
	C1691.097412,369.782837 1703.423462,383.006195 1713.828979,397.867706 
	C1723.016968,410.990173 1731.695068,424.558136 1739.451416,438.564575 
	C1744.982422,448.552795 1748.318726,459.730286 1753.156494,470.134308 
	C1761.391235,487.844025 1764.469604,506.930084 1767.629272,525.833313 
	C1769.821411,538.948364 1769.424927,552.510864 1769.976807,565.882080 
	C1770.942627,589.272583 1768.345581,612.351501 1761.970215,634.821533 
	C1757.317993,651.218384 1752.818604,667.922852 1745.655396,683.279236 
	C1735.634155,704.762207 1723.592041,725.392029 1707.929810,743.501404 
	C1698.987305,753.840881 1690.462769,764.762085 1680.275146,773.749329 
	C1667.087891,785.382996 1652.827148,795.928833 1638.306763,805.890503 
	C1618.778687,819.287476 1597.183228,828.771973 1574.676270,836.102844 
	C1558.484131,841.376770 1541.974121,845.608765 1524.993652,846.879395 
	C1507.359863,848.198853 1489.620728,849.196411 1471.960938,848.811340 
	C1448.209351,848.293335 1424.993652,843.158447 1402.836182,834.842285 
	C1384.916626,828.116577 1367.646118,819.553650 1351.898193,808.355957 
	C1350.869019,807.624146 1349.724731,807.053955 1347.998657,806.032837 
	C1347.998657,808.537415 1347.998779,810.302124 1347.998779,812.066833 
	C1347.999023,850.392517 1347.871460,888.718750 1348.033813,927.043762 
	C1348.210815,968.817688 1348.662842,1010.590515 1348.963745,1052.364014 
	C1348.976807,1054.168091 1348.676392,1055.974487 1347.685303,1057.927734 
	C1327.615845,1058.143433 1308.383301,1058.211060 1289.150635,1058.278809 
	C1288.771362,1056.425781 1288.062134,1054.572876 1288.060547,1052.719604 
	C1287.998657,983.731812 1288.128540,914.743774 1287.958252,845.756409 
	C1287.810303,785.846863 1287.331909,725.938110 1287.001343,666.029053 
	C1286.990723,664.121826 1287.000000,662.214417 1287.000000,660.307129 
	C1287.456909,660.173706 1287.913818,660.040344 1288.370728,659.906921 
	C1289.209961,661.138184 1290.132446,662.321289 1290.875244,663.608276 
	C1297.002930,674.227295 1302.231445,685.495239 1309.400024,695.354004 
	C1320.837524,711.083862 1334.286865,725.038818 1349.552002,737.408508 
	C1362.621826,747.999329 1376.566040,757.007874 1391.412231,764.536499 
	C1410.005615,773.965393 1429.644653,781.142517 1450.389526,783.791138 
	C1466.390137,785.834106 1482.668701,787.201660 1498.756104,786.700684 
	C1521.176392,786.002502 1542.997925,781.614075 1564.293335,773.483826 
	C1584.790894,765.658020 1603.781738,755.507996 1620.928711,742.260742 
	C1647.288086,721.895996 1668.379395,696.865173 1683.671753,667.016541 
	C1693.085449,648.642151 1699.607666,629.329529 1703.697388,609.233337 
	C1705.650391,599.636353 1706.368774,589.723755 1706.874878,579.914307 
	C1707.401001,569.721069 1707.764160,559.406494 1706.796997,549.278748 
	C1705.668945,537.466858 1703.085083,525.789001 1701.020142,514.072815 
	C1697.953613,496.673340 1690.933472,480.606445 1682.838013,465.176453 
	C1674.150757,448.618378 1663.517578,433.284241 1650.953003,419.181305 
	C1635.269897,401.577911 1616.970947,387.495819 1596.887451,375.575378 
	C1575.749634,363.029175 1552.905762,354.663300 1528.782104,350.149445 
	C1510.318115,346.694550 1491.521973,345.891418 1472.839844,347.163300 
	C1444.952393,349.061890 1418.086304,355.800323 1393.104004,368.573364 
	C1377.062256,376.775299 1362.083862,386.623352 1348.082153,398.247650 
	C1324.271729,418.014893 1306.282471,441.949738 1292.199707,469.245300 
	C1284.178467,484.792664 1278.660400,501.194916 1274.594849,518.070251 
	C1272.603149,526.336975 1271.215820,534.972290 1271.167358,543.450073 
	C1270.601074,642.714783 1270.338135,741.981262 1270.006348,841.247314 
	C1269.968750,852.501038 1269.949097,863.755249 1270.008789,875.008789 
	C1270.323364,934.330933 1270.677368,993.652893 1270.958618,1052.975220 
	C1270.969971,1055.368530 1272.172729,1058.698853 1267.097168,1058.702637 
	C1248.663330,1058.336548 1230.983154,1058.256348 1213.302856,1058.209351 
	C1212.850098,1058.208130 1212.396240,1058.571289 1211.942871,1058.764404 
z"/>
<path fill="#FFB703" opacity="1.000000" stroke="none" 
	d="
M1078.000000,705.992676 
	C1102.467529,705.992676 1126.434937,705.992676 1150.694580,705.992676 
	C1150.694580,725.758911 1150.694580,745.154785 1150.694580,764.773926 
	C1025.582275,764.773926 900.511780,764.773926 774.595459,764.773926 
	C775.769958,754.328918 776.449524,744.075439 778.190674,734.005371 
	C779.875061,724.263672 782.355103,714.628113 785.014648,705.093445 
	C789.688110,688.338257 796.811035,672.568237 805.857361,657.737366 
	C811.927307,647.786194 818.111450,637.850830 825.008972,628.470398 
	C836.402039,612.976379 849.368469,598.852478 864.066528,586.337036 
	C871.960815,579.615051 879.304443,572.249207 887.138306,565.452515 
	C900.275696,554.054504 913.567444,542.833069 926.867188,531.623779 
	C938.912781,521.471436 951.189941,511.590332 963.123230,501.309113 
	C979.549866,487.156616 996.481506,473.475189 1011.810059,458.200348 
	C1023.725830,446.326385 1034.133057,432.773193 1044.113403,419.161743 
	C1058.359985,399.731873 1069.527588,378.429688 1076.133911,355.178986 
	C1079.446777,343.519226 1081.188477,331.353973 1082.874756,319.310120 
	C1084.194702,309.881866 1085.302612,300.239349 1084.820801,290.777802 
	C1083.319702,261.302979 1076.402466,233.188522 1059.716309,208.353027 
	C1052.636963,197.816132 1045.202148,187.241333 1036.362915,178.217575 
	C1013.577148,154.955948 986.016541,139.478790 954.168579,132.107452 
	C938.107361,128.390015 921.645752,127.926224 905.381653,129.220093 
	C886.028748,130.759689 867.327515,135.951141 849.863770,144.681519 
	C836.291382,151.466537 823.958862,160.090866 812.308411,169.944839 
	C795.254639,184.368820 782.427490,201.959183 772.393494,221.515060 
	C764.911011,236.098083 759.192688,251.555496 757.970276,268.243927 
	C757.394958,276.097809 756.488220,283.931183 756.086853,291.792023 
	C755.934937,294.768738 755.061096,295.995850 752.053894,295.988403 
	C733.221069,295.941956 714.387634,295.922302 695.555359,296.038300 
	C692.009033,296.060120 691.811523,294.007721 692.018188,291.501312 
	C692.637329,283.991089 693.274963,276.481537 694.007019,268.981659 
	C695.974548,248.825699 700.456421,229.329666 708.049561,210.455383 
	C716.052612,190.561996 726.541260,172.071289 739.569153,155.251770 
	C754.121216,136.464615 771.287476,120.111458 790.952759,106.514252 
	C810.278992,93.151421 830.967163,82.429871 853.555908,76.075584 
	C866.765747,72.359589 880.479431,70.287567 894.069641,68.124695 
	C902.480835,66.786057 911.096313,65.999428 919.601624,66.133362 
	C938.261780,66.427200 956.655396,68.864258 974.902893,73.250267 
	C991.443359,77.225952 1007.027100,83.469589 1021.921570,91.214653 
	C1033.248901,97.104836 1044.047241,104.292709 1054.234009,112.019547 
	C1065.055664,120.227829 1075.661377,129.012299 1084.974731,138.856888 
	C1104.220581,159.200623 1119.536133,182.198517 1130.410889,208.327621 
	C1137.009888,224.183060 1141.052734,240.567245 1144.768433,257.093811 
	C1146.552856,265.030457 1146.548340,273.410370 1146.928711,281.609283 
	C1147.261475,288.780762 1146.974121,295.980011 1147.004395,303.166809 
	C1147.071899,319.182159 1144.221924,334.796173 1140.948608,350.401367 
	C1137.731567,365.737671 1132.083984,380.227417 1125.197388,394.098938 
	C1118.658081,407.271362 1110.847900,419.852936 1103.035767,432.343597 
	C1092.672241,448.913727 1080.457275,464.075470 1066.620728,477.938995 
	C1056.826782,487.751831 1047.618042,498.159241 1037.647827,507.782959 
	C1025.289062,519.712158 1012.478394,531.177551 999.744812,542.713013 
	C983.604431,557.334778 967.294739,571.769775 951.160706,586.398560 
	C944.153564,592.751892 937.304321,599.287964 930.558716,605.919312 
	C920.913940,615.400574 911.159180,624.792969 901.941711,634.680481 
	C888.559448,649.035522 876.813049,664.672180 867.490906,682.019897 
	C863.389465,689.652222 859.395508,697.342468 854.832642,705.992676 
	C929.989685,705.992676 1003.744873,705.992676 1078.000000,705.992676 
z"/>
<path fill="#FFB703" opacity="1.000000" stroke="none" 
	d="
M908.780701,448.745422 
	C918.473328,439.717194 928.465759,431.454468 937.215332,422.037140 
	C951.731995,406.412628 966.478210,390.814362 979.211548,373.773254 
	C991.703308,357.055420 999.802429,337.724854 1001.975952,316.541565 
	C1003.676758,299.964355 1005.182800,283.266052 999.980713,267.017395 
	C991.971680,242.001419 975.693726,223.792496 951.710754,213.544235 
	C927.341553,203.130966 902.551331,204.481232 879.918091,218.280014 
	C859.277222,230.864151 844.519897,248.956787 839.039978,273.289978 
	C837.654663,279.441620 836.781250,285.732849 836.095337,292.006165 
	C835.805176,294.659882 835.178711,296.003113 832.351440,295.997742 
	C812.727295,295.960358 793.102966,295.977966 773.235229,295.977966 
	C772.121765,283.018768 774.388062,270.736450 777.254333,258.670502 
	C782.192261,237.883759 791.461731,218.848343 804.672363,202.181900 
	C817.889648,185.507050 833.695679,171.669266 852.988647,161.750854 
	C865.965149,155.079712 879.287842,149.908173 893.490234,147.425308 
	C905.913391,145.253479 918.523865,143.532349 931.244080,145.930801 
	C942.723389,148.095306 954.293335,149.794281 965.737549,152.120682 
	C969.622559,152.910477 973.298340,154.869064 976.980103,156.496262 
	C996.172913,164.978745 1013.250061,176.537231 1027.482788,192.031418 
	C1044.717651,210.794067 1056.181763,232.810837 1062.585205,257.336212 
	C1064.665283,265.302551 1065.095337,273.728699 1065.939087,281.979431 
	C1066.576660,288.213379 1067.139648,294.518677 1066.928711,300.765015 
	C1065.854248,332.594574 1057.953003,362.538391 1040.782715,389.596588 
	C1033.138428,401.643036 1025.375610,413.733124 1016.415222,424.789276 
	C1008.772217,434.219940 999.393188,442.255310 990.675171,450.798676 
	C985.695679,455.678375 980.642578,460.501648 975.377441,465.067505 
	C961.644104,476.976837 947.803223,488.762787 933.953064,500.536469 
	C921.116638,511.448273 907.974243,522.012512 895.391113,533.206970 
	C873.577515,552.613403 851.737000,572.015442 830.588623,592.134949 
	C815.616211,606.378967 803.612427,623.211914 793.007385,640.977661 
	C781.524292,660.214355 770.956726,679.959045 764.994568,701.640747 
	C761.699219,713.624451 759.706421,726.041504 758.078735,738.388733 
	C756.208435,752.576660 755.390808,766.903381 754.065674,781.732666 
	C886.867004,781.732666 1018.592529,781.732666 1150.988037,781.732666 
	C1150.988037,784.451843 1150.988037,786.709839 1150.988037,788.967834 
	C1150.988037,804.300598 1150.784668,819.637695 1151.105347,834.963745 
	C1151.208618,839.906433 1149.608032,841.100098 1144.887939,841.092651 
	C1065.224243,840.966858 985.560425,841.002686 905.896606,841.002686 
	C836.899048,841.002686 767.901550,841.003357 698.903992,841.001709 
	C692.012024,841.001526 691.999939,840.994873 691.999756,834.231262 
	C691.999451,824.748840 691.488037,815.229492 692.144043,805.791870 
	C693.406189,787.634155 695.620361,769.543152 696.912842,751.386963 
	C698.488647,729.250916 704.723877,708.237976 711.964539,687.531372 
	C719.960510,664.664368 730.284790,642.793091 743.269897,622.277771 
	C750.384888,611.036621 757.478210,599.757812 765.174316,588.916870 
	C770.360596,581.611267 776.232971,574.708252 782.412231,568.208679 
	C796.957275,552.909607 811.628723,537.713745 826.707947,522.944702 
	C839.417847,510.496185 852.658508,498.579346 865.875916,486.661896 
	C879.961670,473.961548 894.296143,461.537048 908.780701,448.745422 
z"/>
<path fill="#E63946" opacity="1.000000" stroke="none" 
	d="
M169.256042,648.648621 
	C161.387268,630.289185 156.702728,611.503601 155.021729,592.001099 
	C154.158310,581.983887 152.676453,571.885437 153.183533,561.910645 
	C154.550766,535.016113 158.136307,508.426086 170.091690,483.787720 
	C175.144852,473.373810 179.841827,462.631683 186.219803,453.049927 
	C197.822128,435.619598 211.602386,420.007568 228.243805,406.920013 
	C242.132416,395.997345 256.976105,386.848175 272.993744,379.606110 
	C289.751343,372.029510 307.479950,367.900513 325.603577,364.823669 
	C341.150391,362.184296 356.735931,362.530579 372.200073,363.291168 
	C384.639984,363.903015 397.032104,366.993042 409.274200,369.745178 
	C425.142303,373.312378 440.198242,379.396790 454.110016,387.799011 
	C464.717682,394.205688 475.131958,401.073730 484.933167,408.641876 
	C500.184692,420.418640 512.821899,434.923035 523.238220,451.036652 
	C531.358521,463.598480 538.235840,476.905518 543.286011,491.211884 
	C548.197083,505.124115 552.651428,519.105896 553.853821,533.753662 
	C555.104065,548.984131 556.838867,564.174988 555.236023,579.649536 
	C553.512634,596.287598 551.992310,612.839539 547.093567,628.922546 
	C539.796021,652.881165 528.447937,674.844421 513.457031,694.758545 
	C501.927765,710.074280 488.071014,723.182556 472.351715,734.403259 
	C455.141052,746.688477 436.643250,756.127563 416.442261,762.198853 
	C402.317963,766.443909 387.921600,769.412170 373.119507,769.987427 
	C364.196411,770.334167 355.233551,771.318542 346.355469,770.821472 
	C327.213013,769.749756 308.370087,766.842590 290.036072,760.666748 
	C273.484070,755.091187 257.772736,747.878845 243.516388,737.948853 
	C233.914276,731.260742 225.259262,723.210449 216.201309,715.744263 
	C205.686935,707.077637 197.526245,696.358154 189.706009,685.335632 
	C181.629715,673.952209 174.822647,661.870789 169.256042,648.648621 
M251.527466,662.977173 
	C258.613678,669.551758 265.243103,676.726440 272.898254,682.553589 
	C283.159973,690.364929 294.502167,696.413025 306.921722,700.554688 
	C321.171875,705.306824 335.693054,708.416626 350.615448,708.830872 
	C359.788177,709.085510 369.202423,708.618408 378.158264,706.775085 
	C390.562531,704.221985 403.179260,701.317383 414.724762,696.305298 
	C431.341919,689.091614 445.523438,677.968140 457.649719,664.155945 
	C469.948303,650.147522 478.935944,634.483521 485.080780,616.978638 
	C489.233948,605.147278 490.534698,592.889465 492.197296,580.564880 
	C494.399658,564.239380 492.624512,548.177612 489.342987,532.509277 
	C486.707947,519.927673 481.970184,507.443787 476.135162,495.946960 
	C464.251770,472.532837 445.996368,454.641205 423.183594,441.664917 
	C402.483215,429.890137 379.726990,425.644653 356.231110,425.130890 
	C349.205566,424.977234 342.159302,426.567291 335.100403,426.976929 
	C320.496368,427.824310 306.978485,432.510620 293.951172,438.642517 
	C277.880341,446.206970 264.191895,456.928772 252.229736,470.179840 
	C237.089355,486.951538 226.019562,505.771240 221.193375,527.879333 
	C218.855316,538.589539 216.909668,549.504700 216.182312,560.420105 
	C215.003952,578.103821 217.850220,595.546692 222.825424,612.496948 
	C224.915344,619.617188 228.731094,626.216919 231.544724,633.141724 
	C236.059464,644.253296 243.227890,653.563904 251.527466,662.977173 
z"/>
<path fill="#2A9D8F" opacity="1.000000" stroke="none" 
	d="
M1287.999390,548.902161 
	C1289.780273,537.118530 1291.330444,525.758972 1293.397217,514.494141 
	C1296.369995,498.291901 1302.887451,483.182159 1310.272095,468.707947 
	C1315.947510,457.584198 1323.722168,447.433807 1331.308472,437.414703 
	C1336.980225,429.924011 1343.434814,422.906860 1350.250000,416.424316 
	C1367.674438,399.850464 1387.755127,387.199799 1409.953491,377.953583 
	C1427.887207,370.483612 1446.565308,365.910217 1465.886597,363.991852 
	C1482.699951,362.322479 1499.549194,361.802795 1516.216309,365.011902 
	C1530.170898,367.698730 1544.439819,369.828796 1557.736084,374.551910 
	C1570.836914,379.205658 1583.180664,386.300079 1595.330933,393.243561 
	C1611.189209,402.305908 1625.331177,413.944397 1637.031494,427.896729 
	C1646.875977,439.636322 1655.665527,452.374847 1663.905884,465.318054 
	C1675.713989,483.865356 1681.384521,504.961639 1686.675293,526.060181 
	C1687.825562,530.647217 1688.287842,535.483643 1688.450806,540.226379 
	C1688.851318,551.891479 1688.894775,563.568909 1689.074585,575.241394 
	C1689.084839,575.906616 1688.986206,576.574524 1689.011841,577.238342 
	C1689.677368,594.490967 1686.105835,611.059937 1681.301270,627.501892 
	C1673.759033,653.313416 1661.168457,676.268860 1644.431641,697.306458 
	C1631.294189,713.819763 1615.738647,727.361694 1598.300903,738.879028 
	C1578.603882,751.888794 1557.185791,761.032166 1534.060181,766.003967 
	C1515.263184,770.045288 1496.186035,772.020020 1477.037598,770.887207 
	C1446.530029,769.082397 1417.336304,761.731567 1390.497070,746.668152 
	C1372.585449,736.615417 1355.946045,724.634644 1342.055542,709.422180 
	C1320.413208,685.720093 1304.070312,658.825439 1295.626099,627.578735 
	C1291.638428,612.823242 1288.048706,597.964966 1287.998291,582.532349 
	C1287.962280,571.477844 1287.996582,560.423157 1287.999390,548.902161 
M1500.492188,425.961548 
	C1492.800903,425.975952 1485.107788,425.887634 1477.418701,426.026001 
	C1461.010986,426.321259 1445.577515,430.321106 1430.446655,436.829407 
	C1409.947266,445.646759 1393.401123,459.077454 1379.824219,476.446259 
	C1369.796387,489.274963 1361.395996,503.049835 1357.666138,519.143127 
	C1354.935913,530.922302 1351.394409,542.670288 1350.252441,554.626831 
	C1348.102783,577.132690 1351.593994,599.300415 1359.141479,620.564026 
	C1365.791748,639.299866 1376.508301,655.711060 1390.802612,669.671387 
	C1404.260376,682.814514 1419.058960,693.541809 1437.213013,699.813171 
	C1450.990723,704.572754 1464.938110,707.956726 1479.306763,708.826050 
	C1497.989624,709.956421 1516.219360,706.903625 1534.161987,701.135681 
	C1556.166748,694.061951 1574.068115,681.340088 1589.789551,664.782654 
	C1603.475952,650.368530 1613.525391,633.895203 1619.476562,615.014404 
	C1622.961304,603.958740 1626.394531,592.848267 1626.109985,580.964294 
	C1625.809814,568.421814 1627.419678,555.657227 1625.622437,543.365906 
	C1622.458374,521.727844 1614.762329,501.411133 1601.898315,483.370758 
	C1590.773926,467.770020 1577.153320,454.904144 1560.750610,444.891968 
	C1542.476318,433.737457 1522.700806,427.578156 1500.492188,425.961548 
z"/>
<path fill="#073B4C" opacity="1.000000" stroke="none" 
	d="
M997.123413,949.038513 
	C996.461304,942.132874 997.002747,934.834778 994.904175,928.397461 
	C989.310059,911.237366 968.504272,909.731812 955.125977,917.435730 
	C941.219360,925.443909 936.944702,938.671326 936.177002,953.149048 
	C935.147095,972.571045 935.186462,992.057068 935.111145,1011.516907 
	C935.093689,1016.023254 933.666321,1017.221802 929.367493,1017.079773 
	C917.165466,1016.676758 919.105103,1018.510376 919.026489,1006.753540 
	C918.916260,990.258728 919.195618,973.759277 918.913086,957.268555 
	C918.777222,949.337708 917.700562,941.425110 917.113464,933.499451 
	C916.091797,919.709473 901.964172,910.797668 887.954529,913.273132 
	C870.082764,916.430969 858.130859,932.928040 857.959167,947.716980 
	C857.712036,969.007446 857.191833,990.295166 857.022949,1011.585876 
	C856.991150,1015.593689 856.003845,1017.130554 851.730225,1017.094666 
	C840.001587,1016.996094 840.000000,1017.178345 840.000000,1005.618469 
	C840.000000,972.127502 840.090759,938.635986 839.897705,905.146179 
	C839.870300,900.383118 841.103882,898.764343 846.008057,898.944458 
	C858.043701,899.386536 856.952515,897.519653 857.007751,909.976624 
	C857.015869,911.803406 857.008850,913.630310 857.008850,916.850525 
	C867.878723,903.900452 880.014038,896.003296 896.825562,896.858765 
	C914.036377,897.734558 925.491638,905.827454 931.746338,921.886230 
	C936.166138,917.070679 940.174377,912.517700 944.380432,908.155457 
	C957.388672,894.664246 984.951904,892.575378 998.905640,904.624817 
	C1008.430054,912.849487 1013.428406,923.820007 1013.836792,936.152161 
	C1014.673645,961.423767 1014.616028,986.724304 1015.044495,1012.010925 
	C1015.104126,1015.529419 1014.206665,1017.130554 1010.322876,1017.062866 
	C994.289612,1016.783142 997.301880,1018.664124 997.089417,1004.397583 
	C997.037354,1000.899353 997.069763,997.399841 997.316528,993.090637 
	C997.703552,978.804138 997.854980,965.328003 997.933838,951.851440 
	C997.939331,950.915405 997.406128,949.976257 997.123413,949.038513 
z"/>
<path fill="#073B4C" opacity="1.000000" stroke="none" 
	d="
M583.240845,900.056763 
	C595.075989,896.054565 606.770020,896.240662 618.529114,898.017334 
	C630.873901,899.882446 639.400940,908.143738 648.851379,917.059448 
	C648.851379,911.740479 648.768250,907.512695 648.866333,903.289124 
	C649.213440,888.336487 649.695496,873.386475 649.950195,858.432556 
	C650.005005,855.212036 651.085754,854.143433 654.330139,854.073914 
	C666.002441,853.824097 665.999878,853.713684 665.999939,865.560974 
	C666.000183,914.032227 665.932739,962.503784 666.105286,1010.974426 
	C666.122559,1015.830811 664.718994,1017.204712 659.924011,1017.113464 
	C646.555054,1016.859131 649.575684,1017.454346 648.865479,1006.001831 
	C648.773376,1004.516235 648.852905,1003.019958 648.852905,1001.801392 
	C642.210632,1006.201477 635.964722,1011.589478 628.757568,1014.858032 
	C612.806885,1022.092224 596.248779,1022.882935 580.165100,1014.995728 
	C554.606995,1002.462524 542.617798,981.135925 544.287415,953.293091 
	C545.799133,928.083008 560.153381,910.720032 583.240845,900.056763 
M649.061707,969.638123 
	C651.780701,956.035095 650.698853,943.307434 642.314697,931.453857 
	C633.106934,918.435852 614.781738,910.753601 599.161926,913.231201 
	C574.757019,917.102356 557.821228,941.124512 561.943420,965.760620 
	C564.063416,978.431030 570.173584,988.576355 580.212524,995.974182 
	C596.541382,1008.007385 617.326538,1006.797180 633.766663,995.203735 
	C641.852722,989.501526 647.673157,981.044128 649.061707,969.638123 
z"/>
<path fill="#073B4C" opacity="1.000000" stroke="none" 
	d="
M751.037354,897.003052 
	C770.021423,895.522583 785.430969,901.976807 797.865967,915.485901 
	C806.509155,924.875671 811.872559,935.991211 812.958374,948.809021 
	C813.991638,961.007629 813.793335,961.024414 801.574890,961.024414 
	C773.421265,961.024414 745.267639,961.023132 717.114014,961.025330 
	C710.129578,961.025879 710.146729,961.028870 710.985413,967.848816 
	C713.431213,987.737427 727.398376,1001.350586 745.715088,1003.639404 
	C764.431824,1005.978088 780.829773,1000.486938 791.865234,983.709778 
	C796.489685,976.679199 796.586487,976.742859 803.745178,980.362915 
	C810.737610,983.898926 811.209045,985.294189 806.778564,991.707825 
	C796.664124,1006.349365 783.458862,1017.395447 765.497131,1019.442505 
	C737.875366,1022.590454 717.274292,1017.657959 701.552917,990.822021 
	C686.230408,964.666931 690.972473,932.441223 712.679260,911.911682 
	C723.218933,901.943542 735.694214,896.305725 751.037354,897.003052 
M758.121155,913.021118 
	C753.007935,913.368958 747.826050,913.304688 742.794434,914.142517 
	C728.243347,916.565308 714.402771,931.140259 712.705139,945.599304 
	C740.171509,945.599304 767.606445,945.599304 795.576904,945.599304 
	C792.784668,936.383057 789.005432,928.544312 781.614136,922.734314 
	C774.911194,917.465393 767.265442,914.624573 758.121155,913.021118 
z"/>
<path fill="#073B4C" opacity="1.000000" stroke="none" 
	d="
M192.676544,1013.768433 
	C171.979767,1023.746643 151.752472,1022.824463 133.052094,1010.676575 
	C117.449066,1000.540710 108.242386,985.655762 105.809654,966.552246 
	C103.582123,949.060181 107.494347,933.229980 118.161156,919.870300 
	C128.742615,906.617493 142.404877,897.123047 160.524887,897.044739 
	C166.317795,897.019714 172.125412,897.362244 177.904404,897.815796 
	C188.630936,898.657776 196.550613,904.998169 204.192505,911.731140 
	C206.306351,913.593567 208.186447,915.721252 211.010696,918.571960 
	C211.010696,912.836060 211.118927,907.970459 210.970428,903.112610 
	C210.880264,900.163147 211.867783,898.950500 214.972656,899.006531 
	C231.037994,899.296326 227.838043,897.201111 227.916077,911.248047 
	C228.093628,943.216980 227.972061,975.187622 227.972061,1007.157532 
	C227.972061,1010.301147 227.972076,1013.444763 227.972076,1016.996704 
	C223.536514,1016.996704 219.569595,1016.840820 215.621140,1017.043945 
	C212.205276,1017.219727 210.760208,1016.020386 210.951477,1012.480103 
	C211.172638,1008.386475 211.002930,1004.271790 211.002930,1000.184265 
	C204.772522,1004.826416 198.889374,1009.209839 192.676544,1013.768433 
M156.673767,1003.017700 
	C171.007401,1006.154785 184.610184,1003.582947 195.704102,994.433533 
	C212.678452,980.434265 216.275787,957.566101 207.465179,938.304443 
	C196.734924,914.846069 167.263885,906.216003 144.940338,918.822815 
	C130.304016,927.088318 119.488647,949.395996 122.893814,965.672729 
	C126.856804,984.615967 137.116196,997.357361 156.673767,1003.017700 
z"/>
<path fill="#073B4C" opacity="1.000000" stroke="none" 
	d="
M418.377441,909.298706 
	C435.266022,895.834595 454.084076,894.432861 473.864624,899.063721 
	C482.016479,900.972107 488.267975,906.380249 494.320007,911.859924 
	C496.389374,913.733582 498.264038,915.822327 501.005341,918.601318 
	C501.005341,912.962219 501.124329,908.223267 500.963074,903.493835 
	C500.857697,900.403076 501.743896,898.926453 505.159210,899.003845 
	C519.644409,899.332275 516.891174,897.173340 516.950012,910.293091 
	C517.100220,943.788696 516.881958,977.286316 517.124207,1010.780823 
	C517.161865,1015.994873 515.552551,1017.309509 510.608185,1017.098450 
	C499.552277,1016.626282 501.165497,1018.398499 501.008545,1007.503723 
	C500.973297,1005.058289 501.003387,1002.611938 501.003387,999.158142 
	C496.409058,1003.158203 492.757538,1006.680237 488.758087,1009.748718 
	C480.238464,1016.285217 470.487274,1019.528992 459.754150,1020.015564 
	C448.453766,1020.527771 437.731659,1019.045959 427.594666,1013.380066 
	C410.181946,1003.647461 399.791016,988.888916 396.120728,969.641785 
	C391.505676,945.440308 399.933685,925.594116 418.377441,909.298706 
M500.078308,971.497009 
	C503.939209,960.347351 502.316620,949.340515 497.839722,938.991333 
	C489.018005,918.597900 465.786896,908.506165 444.267334,914.737061 
	C416.565216,922.757996 402.182159,956.572021 419.977478,984.264465 
	C430.006775,999.871643 445.285645,1006.231445 463.346619,1003.712158 
	C481.802734,1001.137695 494.451569,990.578186 500.078308,971.497009 
z"/>
<path fill="#073B4C" opacity="1.000000" stroke="none" 
	d="
M271.002472,960.832764 
	C271.915497,984.249939 291.965698,1003.519409 314.898743,1004.091370 
	C327.246460,1004.399231 338.764923,1002.426025 348.863831,994.995850 
	C351.786285,992.845764 354.412689,990.218262 356.868591,987.529907 
	C359.338654,984.825928 361.853333,984.357422 364.741852,986.484009 
	C374.730682,993.837646 375.905640,992.051147 366.597046,1001.676147 
	C354.762848,1013.912842 339.746490,1019.570374 322.726532,1020.023010 
	C311.169250,1020.330322 299.883240,1019.695984 289.248383,1014.282043 
	C270.512817,1004.744263 258.306641,990.520752 254.896622,969.240967 
	C251.517639,948.155029 257.388397,929.884338 272.140503,915.006409 
	C282.471527,904.587341 295.366119,897.865356 310.484802,897.109314 
	C323.128998,896.476929 335.793976,896.398438 347.663635,902.019653 
	C357.239502,906.554626 365.957275,912.105835 371.378937,921.653015 
	C371.788239,922.373779 372.735657,923.599915 372.648346,923.674683 
	C369.391144,926.463379 366.176025,929.348816 362.608154,931.692871 
	C361.734497,932.266907 359.048859,931.527954 358.237793,930.538696 
	C342.710175,911.600769 318.284302,909.080383 298.958191,916.292969 
	C284.100281,921.837952 269.118683,938.872620 271.002472,960.832764 
z"/>
<path fill="#073B4C" opacity="1.000000" stroke="none" 
	d="
M1141.343872,905.291016 
	C1128.414551,934.816345 1115.614868,963.974365 1102.949463,993.190735 
	C1094.057007,1013.703735 1085.295776,1034.274292 1076.604980,1054.873535 
	C1075.066284,1058.520752 1073.101929,1060.531616 1068.812744,1060.080200 
	C1065.095703,1059.689087 1061.305054,1059.998901 1056.269043,1059.998901 
	C1059.078125,1053.438599 1061.378662,1048.029175 1063.708618,1042.632568 
	C1068.169189,1032.301025 1072.587036,1021.950378 1077.154663,1011.666199 
	C1078.440552,1008.771057 1078.654053,1006.351074 1077.228394,1003.242249 
	C1065.134644,976.870911 1053.237549,950.409180 1041.371826,923.933960 
	C1038.390869,917.282654 1035.810547,910.452515 1032.900024,903.768250 
	C1031.530396,900.622864 1032.001709,898.945129 1035.748535,899.074951 
	C1035.914795,899.080750 1036.081787,899.079529 1036.248169,899.073608 
	C1048.113770,898.651367 1048.236816,898.595825 1053.134521,909.446655 
	C1062.197266,929.525024 1071.062622,949.692444 1080.095215,969.784607 
	C1082.534546,975.210815 1085.278931,980.500000 1088.161255,986.423279 
	C1093.320801,974.629944 1098.236572,963.411133 1103.138062,952.186096 
	C1110.374146,935.614502 1117.564331,919.022705 1124.897583,902.494324 
	C1125.492920,901.152588 1126.968872,899.360657 1128.151978,899.268250 
	C1132.895508,898.897949 1137.684814,899.115112 1143.282959,899.115112 
	C1142.525269,901.638000 1142.028076,903.293335 1141.343872,905.291016 
z"/>
<path fill="#00A955" opacity="1.000000" stroke="none" 
	d="
M1289.448120,1058.537598 
	C1308.383301,1058.211060 1327.615845,1058.143433 1347.280518,1058.133301 
	C1346.957886,1058.457153 1346.202881,1058.956421 1345.448486,1058.955566 
	C1326.880859,1058.934692 1308.313232,1058.860718 1289.448120,1058.537598 
z"/>
<path fill="#00AA55" opacity="1.000000" stroke="none" 
	d="
M1212.410156,1058.852539 
	C1212.396240,1058.571289 1212.850098,1058.208130 1213.302856,1058.209351 
	C1230.983154,1058.256348 1248.663330,1058.336548 1266.692261,1058.641968 
	C1248.986450,1058.894653 1230.932007,1058.917725 1212.410156,1058.852539 
z"/>
<path fill="#000055" opacity="1.000000" stroke="none" 
	d="
M997.085449,949.502136 
	C997.406128,949.976257 997.939331,950.915405 997.933838,951.851440 
	C997.854980,965.328003 997.703552,978.804138 997.346436,992.620422 
	C997.097961,978.628906 997.072693,964.297363 997.085449,949.502136 
z"/>
<path fill="#000000" opacity="1.000000" stroke="none" 
	d="
M251.260803,662.737915 
	C243.227890,653.563904 236.059464,644.253296 231.544724,633.141724 
	C228.731094,626.216919 224.915344,619.617188 222.825424,612.496948 
	C217.850220,595.546692 215.003952,578.103821 216.182312,560.420105 
	C216.909668,549.504700 218.855316,538.589539 221.193375,527.879333 
	C226.019562,505.771240 237.089355,486.951538 252.229736,470.179840 
	C264.191895,456.928772 277.880341,446.206970 293.951172,438.642517 
	C306.978485,432.510620 320.496368,427.824310 335.100403,426.976929 
	C342.159302,426.567291 349.205566,424.977234 356.231110,425.130890 
	C379.726990,425.644653 402.483215,429.890137 423.183594,441.664917 
	C445.996368,454.641205 464.251770,472.532837 476.135162,495.946960 
	C481.970184,507.443787 486.707947,519.927673 489.342987,532.509277 
	C492.624512,548.177612 494.399658,564.239380 492.197296,580.564880 
	C490.534698,592.889465 489.233948,605.147278 485.080780,616.978638 
	C478.935944,634.483521 469.948303,650.147522 457.649719,664.155945 
	C445.523438,677.968140 431.341919,689.091614 414.724762,696.305298 
	C403.179260,701.317383 390.562531,704.221985 378.158264,706.775085 
	C369.202423,708.618408 359.788177,709.085510 350.615448,708.830872 
	C335.693054,708.416626 321.171875,705.306824 306.921722,700.554688 
	C294.502167,696.413025 283.159973,690.364929 272.898254,682.553589 
	C265.243103,676.726440 258.613678,669.551758 251.260803,662.737915 
z"/>
<path fill="#000000" opacity="1.000000" stroke="none" 
	d="
M1500.957520,425.978394 
	C1522.700806,427.578156 1542.476318,433.737457 1560.750610,444.891968 
	C1577.153320,454.904144 1590.773926,467.770020 1601.898315,483.370758 
	C1614.762329,501.411133 1622.458374,521.727844 1625.622437,543.365906 
	C1627.419678,555.657227 1625.809814,568.421814 1626.109985,580.964294 
	C1626.394531,592.848267 1622.961304,603.958740 1619.476562,615.014404 
	C1613.525391,633.895203 1603.475952,650.368530 1589.789551,664.782654 
	C1574.068115,681.340088 1556.166748,694.061951 1534.161987,701.135681 
	C1516.219360,706.903625 1497.989624,709.956421 1479.306763,708.826050 
	C1464.938110,707.956726 1450.990723,704.572754 1437.213013,699.813171 
	C1419.058960,693.541809 1404.260376,682.814514 1390.802612,669.671387 
	C1376.508301,655.711060 1365.791748,639.299866 1359.141479,620.564026 
	C1351.593994,599.300415 1348.102783,577.132690 1350.252441,554.626831 
	C1351.394409,542.670288 1354.935913,530.922302 1357.666138,519.143127 
	C1361.395996,503.049835 1369.796387,489.274963 1379.824219,476.446259 
	C1393.401123,459.077454 1409.947266,445.646759 1430.446655,436.829407 
	C1445.577515,430.321106 1461.010986,426.321259 1477.418701,426.026001 
	C1485.107788,425.887634 1492.800903,425.975952 1500.957520,425.978394 
z"/>
<path fill="#000000" opacity="1.000000" stroke="none" 
	d="
M649.016296,970.063110 
	C647.673157,981.044128 641.852722,989.501526 633.766663,995.203735 
	C617.326538,1006.797180 596.541382,1008.007385 580.212524,995.974182 
	C570.173584,988.576355 564.063416,978.431030 561.943420,965.760620 
	C557.821228,941.124512 574.757019,917.102356 599.161926,913.231201 
	C614.781738,910.753601 633.106934,918.435852 642.314697,931.453857 
	C650.698853,943.307434 651.780701,956.035095 649.016296,970.063110 
z"/>
<path fill="#000000" opacity="1.000000" stroke="none" 
	d="
M758.572388,913.043884 
	C767.265442,914.624573 774.911194,917.465393 781.614136,922.734314 
	C789.005432,928.544312 792.784668,936.383057 795.576904,945.599304 
	C767.606445,945.599304 740.171509,945.599304 712.705139,945.599304 
	C714.402771,931.140259 728.243347,916.565308 742.794434,914.142517 
	C747.826050,913.304688 753.007935,913.368958 758.572388,913.043884 
z"/>
<path fill="#000000" opacity="1.000000" stroke="none" 
	d="
M156.253662,1002.982727 
	C137.116196,997.357361 126.856804,984.615967 122.893814,965.672729 
	C119.488647,949.395996 130.304016,927.088318 144.940338,918.822815 
	C167.263885,906.216003 196.734924,914.846069 207.465179,938.304443 
	C216.275787,957.566101 212.678452,980.434265 195.704102,994.433533 
	C184.610184,1003.582947 171.007401,1006.154785 156.253662,1002.982727 
z"/>
<path fill="#000000" opacity="1.000000" stroke="none" 
	d="
M500.021576,971.901184 
	C494.451569,990.578186 481.802734,1001.137695 463.346619,1003.712158 
	C445.285645,1006.231445 430.006775,999.871643 419.977478,984.264465 
	C402.182159,956.572021 416.565216,922.757996 444.267334,914.737061 
	C465.786896,908.506165 489.018005,918.597900 497.839722,938.991333 
	C502.316620,949.340515 503.939209,960.347351 500.021576,971.901184 
z"/>
</svg>